# xmcd
#
# Track frame offsets: 
#        150
#        21015
#        39130
#        49975
#        67485
#        84522
#        105880
#        119087
#        134467
#        150472
#        169107
#        187252
#        209042
#
# Disc length: 3024 seconds
#
# Revision: 0
# Processed by: cddbd v1.5.2PL0 Copyright (c) Steve Scherf et al.
# Submitted via: ExactAudioCopy v0.95b4
#
DISCID=bb0bce0d
DTITLE=Various Artist - I Got The Blues
DYEAR=1993
DGENRE=Blues
TTITLE0=The Sky is Crying - Stevie Ray Vaughan and Double trouble
TTITLE1=One Step At A Time - Johnny Winter
TTITLE2=StatesBoro Blues - Rising Sons
TTITLE3=White Boots - The Vaugham Brothers
TTITLE4=Alabama - MIck Taylor
TTITLE5=Streamline Woman - Muddy Waters
TTITLE6=Everybody's Going To Change Sometimes - Taj Mahal
TTITLE7=Tuff Enuff - The Faulous Thunderbirds
TTITLE8=Walking By Myself - Johnny Winter
TTITLE9=Tobacco Road - Edgar Winter
TTITLE10=Cry Baby - Janis Joplin
TTITLE11=Leaving Trunk - Taj Mahal
TTITLE12=Chitlins con Carne - Stevie Ray Vaughan and Double Trouble
EXTD=
EXTT0=
EXTT1=
EXTT2=
EXTT3=
EXTT4=
EXTT5=
EXTT6=
EXTT7=
EXTT8=
EXTT9=
EXTT10=
EXTT11=
EXTT12=
PLAYORDER=
